<mxfile host="app.diagrams.net" modified="2022-10-24T18:39:40.018Z" agent="5.0 (Macintosh)" etag="eN9WgrHMuZpj4KhHaFtI" version="20.5.1" type="github">
  <diagram id="C5RBs43oDa-KdzZeNtuy" name="Page-1">
    <mxGraphModel dx="1353" dy="530" grid="1" gridSize="10" guides="1" tooltips="1" connect="1" arrows="1" fold="1" page="1" pageScale="1" pageWidth="827" pageHeight="1169" math="0" shadow="0">
      <root>
        <mxCell id="WIyWlLk6GJQsqaUBKTNV-0" />
        <mxCell id="WIyWlLk6GJQsqaUBKTNV-1" parent="WIyWlLk6GJQsqaUBKTNV-0" />
        <mxCell id="FAPLc8gfkrrreV1thjCl-5" style="edgeStyle=orthogonalEdgeStyle;rounded=0;orthogonalLoop=1;jettySize=auto;html=1;exitX=0.75;exitY=1;exitDx=0;exitDy=0;entryX=0.25;entryY=0;entryDx=0;entryDy=0;" edge="1" parent="WIyWlLk6GJQsqaUBKTNV-1" source="WIyWlLk6GJQsqaUBKTNV-3" target="FAPLc8gfkrrreV1thjCl-4">
          <mxGeometry relative="1" as="geometry" />
        </mxCell>
        <mxCell id="FAPLc8gfkrrreV1thjCl-6" style="edgeStyle=orthogonalEdgeStyle;rounded=0;orthogonalLoop=1;jettySize=auto;html=1;exitX=0.25;exitY=1;exitDx=0;exitDy=0;entryX=0.25;entryY=0;entryDx=0;entryDy=0;" edge="1" parent="WIyWlLk6GJQsqaUBKTNV-1" source="WIyWlLk6GJQsqaUBKTNV-3" target="FAPLc8gfkrrreV1thjCl-3">
          <mxGeometry relative="1" as="geometry" />
        </mxCell>
        <mxCell id="WIyWlLk6GJQsqaUBKTNV-3" value="Publisher" style="rounded=1;whiteSpace=wrap;html=1;fontSize=12;glass=0;strokeWidth=1;shadow=0;" parent="WIyWlLk6GJQsqaUBKTNV-1" vertex="1">
          <mxGeometry x="160" y="80" width="120" height="40" as="geometry" />
        </mxCell>
        <mxCell id="FAPLc8gfkrrreV1thjCl-0" value="&lt;p style=&quot;line-height: 0.6;&quot;&gt;&lt;/p&gt;&lt;h1 style=&quot;font-size: 18px;&quot;&gt;Publisher&lt;/h1&gt;&lt;p&gt;1. Create data&lt;/p&gt;&lt;p&gt;2. Create message from data&lt;/p&gt;&lt;p&gt;3. Put message on queue&lt;br&gt;&lt;/p&gt;&lt;p&gt;&lt;/p&gt;" style="text;html=1;strokeColor=#666666;fillColor=none;spacing=5;spacingTop=-20;whiteSpace=wrap;overflow=hidden;rounded=0;fontColor=#333333;" vertex="1" parent="WIyWlLk6GJQsqaUBKTNV-1">
          <mxGeometry x="-70" y="80" width="190" height="120" as="geometry" />
        </mxCell>
        <mxCell id="FAPLc8gfkrrreV1thjCl-1" value="&lt;h1 style=&quot;font-size: 18px;&quot;&gt;Subscriber&lt;/h1&gt;&lt;p&gt;1. Poll queue&lt;br&gt;&lt;/p&gt;&lt;p&gt;2. Fetch message from queue&lt;br&gt;&lt;/p&gt;&lt;p&gt;3. Read data from message&lt;br&gt;&lt;/p&gt;" style="text;html=1;spacing=5;spacingTop=-20;whiteSpace=wrap;overflow=hidden;rounded=0;strokeColor=default;" vertex="1" parent="WIyWlLk6GJQsqaUBKTNV-1">
          <mxGeometry x="-70" y="215" width="190" height="120" as="geometry" />
        </mxCell>
        <mxCell id="FAPLc8gfkrrreV1thjCl-2" value="&lt;font face=&quot;Courier New&quot;&gt;t1&lt;/font&gt;" style="text;html=1;strokeColor=none;fillColor=none;align=center;verticalAlign=middle;whiteSpace=wrap;rounded=0;" vertex="1" parent="WIyWlLk6GJQsqaUBKTNV-1">
          <mxGeometry x="160" y="290" width="20" height="30" as="geometry" />
        </mxCell>
        <mxCell id="FAPLc8gfkrrreV1thjCl-3" value="&lt;div&gt;Subscriber&lt;/div&gt;&lt;div&gt;(Benchmarking code)&lt;br&gt;&lt;/div&gt;&lt;div&gt;Pub-sub latency:&lt;br&gt;&lt;/div&gt;&lt;div&gt;&lt;font face=&quot;Courier New&quot;&gt;(t2 - t1)/n&lt;/font&gt;&lt;br&gt;&lt;/div&gt;" style="rounded=1;whiteSpace=wrap;html=1;" vertex="1" parent="WIyWlLk6GJQsqaUBKTNV-1">
          <mxGeometry x="160" y="320" width="120" height="80" as="geometry" />
        </mxCell>
        <mxCell id="FAPLc8gfkrrreV1thjCl-8" style="edgeStyle=orthogonalEdgeStyle;rounded=0;orthogonalLoop=1;jettySize=auto;html=1;exitX=0.25;exitY=1;exitDx=0;exitDy=0;entryX=0.25;entryY=0;entryDx=0;entryDy=0;" edge="1" parent="WIyWlLk6GJQsqaUBKTNV-1" source="FAPLc8gfkrrreV1thjCl-4" target="FAPLc8gfkrrreV1thjCl-7">
          <mxGeometry relative="1" as="geometry" />
        </mxCell>
        <mxCell id="FAPLc8gfkrrreV1thjCl-4" value="Subscriber &amp;amp; Publisher" style="rounded=1;whiteSpace=wrap;html=1;fontSize=12;glass=0;strokeWidth=1;shadow=0;" vertex="1" parent="WIyWlLk6GJQsqaUBKTNV-1">
          <mxGeometry x="220" y="140" width="120" height="40" as="geometry" />
        </mxCell>
        <mxCell id="FAPLc8gfkrrreV1thjCl-11" style="edgeStyle=orthogonalEdgeStyle;rounded=0;orthogonalLoop=1;jettySize=auto;html=1;exitX=0.25;exitY=1;exitDx=0;exitDy=0;entryX=0.25;entryY=0;entryDx=0;entryDy=0;" edge="1" parent="WIyWlLk6GJQsqaUBKTNV-1" source="FAPLc8gfkrrreV1thjCl-7" target="FAPLc8gfkrrreV1thjCl-10">
          <mxGeometry relative="1" as="geometry" />
        </mxCell>
        <mxCell id="FAPLc8gfkrrreV1thjCl-7" value="Subscriber &amp;amp; Publisher" style="rounded=1;whiteSpace=wrap;html=1;fontSize=12;glass=0;strokeWidth=1;shadow=0;" vertex="1" parent="WIyWlLk6GJQsqaUBKTNV-1">
          <mxGeometry x="220" y="200" width="120" height="40" as="geometry" />
        </mxCell>
        <mxCell id="FAPLc8gfkrrreV1thjCl-13" style="edgeStyle=orthogonalEdgeStyle;rounded=0;orthogonalLoop=1;jettySize=auto;html=1;exitX=0.25;exitY=1;exitDx=0;exitDy=0;entryX=0.7;entryY=0;entryDx=0;entryDy=0;entryPerimeter=0;" edge="1" parent="WIyWlLk6GJQsqaUBKTNV-1" source="FAPLc8gfkrrreV1thjCl-10" target="FAPLc8gfkrrreV1thjCl-3">
          <mxGeometry relative="1" as="geometry" />
        </mxCell>
        <mxCell id="FAPLc8gfkrrreV1thjCl-10" value="Repeated &lt;font face=&quot;Courier New&quot;&gt;n&lt;/font&gt; times" style="text;html=1;strokeColor=none;fillColor=none;align=center;verticalAlign=middle;whiteSpace=wrap;rounded=0;" vertex="1" parent="WIyWlLk6GJQsqaUBKTNV-1">
          <mxGeometry x="210" y="260" width="140" height="30" as="geometry" />
        </mxCell>
        <mxCell id="FAPLc8gfkrrreV1thjCl-14" value="&lt;div&gt;&lt;font face=&quot;Courier New&quot;&gt;t2&lt;/font&gt;&lt;/div&gt;" style="text;html=1;strokeColor=none;fillColor=none;align=center;verticalAlign=middle;whiteSpace=wrap;rounded=0;" vertex="1" parent="WIyWlLk6GJQsqaUBKTNV-1">
          <mxGeometry x="250" y="290" width="30" height="30" as="geometry" />
        </mxCell>
      </root>
    </mxGraphModel>
  </diagram>
</mxfile>
